<mxfile host="app.diagrams.net" agent="Mozilla/5.0 (Windows NT 10.0; Win64; x64) AppleWebKit/537.36 (KHTML, like Gecko) Chrome/139.0.0.0 Safari/537.36" version="28.1.1">
  <diagram name="PÃ¡gina-1" id="a-JIm5Kf7GB726UUJ0sE">
    <mxGraphModel dx="1025" dy="431" grid="1" gridSize="10" guides="1" tooltips="1" connect="1" arrows="1" fold="1" page="1" pageScale="1" pageWidth="827" pageHeight="1169" math="0" shadow="0">
      <root>
        <mxCell id="0" />
        <mxCell id="1" parent="0" />
        <mxCell id="Rx1KFc2k2qHYl5c_eDen-1" value="Estudiante" style="shape=umlActor;verticalLabelPosition=bottom;verticalAlign=top;html=1;outlineConnect=0;" vertex="1" parent="1">
          <mxGeometry x="120" y="190" width="80" height="130" as="geometry" />
        </mxCell>
        <mxCell id="Rx1KFc2k2qHYl5c_eDen-2" value="Profesor" style="shape=umlActor;verticalLabelPosition=bottom;verticalAlign=top;html=1;outlineConnect=0;" vertex="1" parent="1">
          <mxGeometry x="340" y="190" width="80" height="130" as="geometry" />
        </mxCell>
        <mxCell id="Rx1KFc2k2qHYl5c_eDen-3" value="Administrador" style="shape=umlActor;verticalLabelPosition=bottom;verticalAlign=top;html=1;outlineConnect=0;" vertex="1" parent="1">
          <mxGeometry x="560" y="190" width="80" height="130" as="geometry" />
        </mxCell>
        <mxCell id="Rx1KFc2k2qHYl5c_eDen-4" value="Inscribirse" style="ellipse;whiteSpace=wrap;html=1;" vertex="1" parent="1">
          <mxGeometry x="60" y="50" width="140" height="70" as="geometry" />
        </mxCell>
        <mxCell id="Rx1KFc2k2qHYl5c_eDen-5" value="Consultar notas" style="ellipse;whiteSpace=wrap;html=1;" vertex="1" parent="1">
          <mxGeometry x="240" y="50" width="140" height="70" as="geometry" />
        </mxCell>
        <mxCell id="Rx1KFc2k2qHYl5c_eDen-6" value="Registrar notas" style="ellipse;whiteSpace=wrap;html=1;" vertex="1" parent="1">
          <mxGeometry x="414" y="50" width="140" height="70" as="geometry" />
        </mxCell>
        <mxCell id="Rx1KFc2k2qHYl5c_eDen-7" value="Generar reportes" style="ellipse;whiteSpace=wrap;html=1;" vertex="1" parent="1">
          <mxGeometry x="600" y="50" width="140" height="70" as="geometry" />
        </mxCell>
        <mxCell id="Rx1KFc2k2qHYl5c_eDen-10" value="" style="endArrow=none;html=1;rounded=0;entryX=0;entryY=1;entryDx=0;entryDy=0;" edge="1" parent="1" target="Rx1KFc2k2qHYl5c_eDen-5">
          <mxGeometry width="50" height="50" relative="1" as="geometry">
            <mxPoint x="180" y="190" as="sourcePoint" />
            <mxPoint x="230" y="140" as="targetPoint" />
          </mxGeometry>
        </mxCell>
        <mxCell id="Rx1KFc2k2qHYl5c_eDen-11" value="" style="endArrow=none;html=1;rounded=0;" edge="1" parent="1" source="Rx1KFc2k2qHYl5c_eDen-1">
          <mxGeometry width="50" height="50" relative="1" as="geometry">
            <mxPoint x="70" y="170" as="sourcePoint" />
            <mxPoint x="120" y="120" as="targetPoint" />
          </mxGeometry>
        </mxCell>
        <mxCell id="Rx1KFc2k2qHYl5c_eDen-12" value="" style="endArrow=none;html=1;rounded=0;" edge="1" parent="1">
          <mxGeometry width="50" height="50" relative="1" as="geometry">
            <mxPoint x="390" y="190" as="sourcePoint" />
            <mxPoint x="470" y="120" as="targetPoint" />
          </mxGeometry>
        </mxCell>
        <mxCell id="Rx1KFc2k2qHYl5c_eDen-13" value="" style="endArrow=none;html=1;rounded=0;" edge="1" parent="1">
          <mxGeometry width="50" height="50" relative="1" as="geometry">
            <mxPoint x="610" y="180" as="sourcePoint" />
            <mxPoint x="660" y="120" as="targetPoint" />
            <Array as="points">
              <mxPoint x="640" y="140" />
            </Array>
          </mxGeometry>
        </mxCell>
        <mxCell id="Rx1KFc2k2qHYl5c_eDen-16" value="&lt;font style=&quot;font-size: 24px;&quot;&gt;Registro de estudiantes en un colegio&lt;/font&gt;" style="text;html=1;align=center;verticalAlign=middle;resizable=0;points=[];autosize=1;strokeColor=none;fillColor=none;" vertex="1" parent="1">
          <mxGeometry x="165" width="430" height="40" as="geometry" />
        </mxCell>
      </root>
    </mxGraphModel>
  </diagram>
</mxfile>
